<svg xmlns="http://www.w3.org/2000/svg" viewBox="0 0 371.81 57.82">
        <path fill="#ef019b" d="M92.52 24.48c-6.04-3.51-10.37-10.77-10.82-18.66-.07-1.56-4.7-.47-4.62 1.4.15 3.36 1.04 6.56 2.39 9.37-2.61 1.4-5.07 2.89-7.76 4.3-1.04.54-2.09 1.02-3.13 1.48-.22.08-.6.31-.82.39-.07.08-.15.08-.22.08s-.07 0-.22.08c-.67.31-1.27.54-1.94.86a117 122.4 0 0 1-8.73 2.89c-7.16 1.95-14.69 3.28-22.08 3.28-5.07 0-10-.78-14.54-2.58a36.8 38.5 0 0 1-2.98-1.48c-.22-.08-.37-.31-.67-.39-.22-.15-.22-.15-.22-.08 0 0-.07-.08-.15-.08-.37-.31-.9-.55-1.27-.86-1.27-.78-2.46-1.8-3.65-2.73 1.12-3.59 1.56-7.41 1.12-11.32-.15-1.33-2.01-1.17-2.68-.94-.9.31-2.01 1.09-1.87 2.42.82 7.26-1.94 14.83-6.94 19.28-.75.63-1.27 1.88-.3 2.5.97.63 2.46.39 3.28-.39 2.24-1.95 4.03-4.29 5.52-7.03 2.16 1.64 4.4 3.12 6.71 4.3 1.64.78 7.08 4.76 28.71 3.05.9-.08 1.64.63 1.72 1.56.07 1.25 1.34 5.07 5.52 9.91 3.65 3.05 17.45 1.95 25.06-3.75.3-.23 1.27-1.33 1.49-1.64.15-.16.9-1.72 1.05-2.03 1.19-2.42 1.64-4.45 1.42-6.95-.3-2.73-1.42-5.39-1.87-7.49-.22-.94.22-1.87 1.04-2.34.3-.15.67-.39 1.34-.78 2.01 2.89 4.47 5.23 7.31 6.87.97.54 2.39 0 3.28-.54.67-.47 1.42-1.4.52-1.95zm-24.54 18.19a20.1 21.1 0 0 1-2.39-3.59c-.67-1.25-1.04-2.5-1.56-3.82a295 309.2 0 0 1-2.98-7.65l.15-.08c1.34 2.42 2.68 4.92 3.95 7.41.67 1.25 1.42 2.42 1.87 3.75.45 1.25.9 2.58 1.12 3.98z"/>
        <path fill="#ef019b" d="M138.83 13.87c.96-4.35.29-7.63-2.02-9.82-2.31-2.19-5.98-3.28-11.01-3.28l-15.11 0-9.69 45.84 4.81 0 4.18-19.64 10.36 0c4.99 0 9.09-1.07 12.3-3.23 3.21-2.15 5.27-5.44 6.18-9.87zm-4.81 0c-.68 3.16-2.16 5.45-4.43 6.87-2.27 1.42-5.07 2.12-8.39 2.12l-10.37 0 3.83-17.98 10.37 0c3.3 0 5.79.71 7.48 2.12 1.68 1.42 2.19 3.71 1.51 6.87zm43.31 9.87c.66-3.07.96-6.03.91-8.89-.04-2.85-.52-5.38-1.44-7.58-.91-2.2-2.35-3.97-4.32-5.29-1.96-1.32-4.53-1.98-7.69-1.98-3.16 0-5.99.66-8.48 1.98-2.5 1.32-4.69 3.09-6.59 5.29-1.9 2.2-3.45 4.73-4.67 7.58-1.22 2.86-2.17 5.82-2.85 8.89-.68 3.07-1 6.03-.96 8.89.03 2.86.51 5.37 1.44 7.55.92 2.18 2.36 3.93 4.3 5.25 1.94 1.33 4.52 1.99 7.73 1.99 3.23 0 6.11-.66 8.62-1.99 2.52-1.32 4.7-3.07 6.54-5.25 1.83-2.18 3.37-4.69 4.6-7.55 1.23-2.86 2.18-5.82 2.86-8.89zm-4.85 0c-.46 2.3-1.14 4.61-2.03 6.94-.89 2.33-2.02 4.43-3.39 6.29-1.37 1.86-3 3.38-4.89 4.56-1.88 1.19-4.08 1.78-6.58 1.78-2.49 0-4.41-.59-5.78-1.78-1.37-1.18-2.35-2.7-2.95-4.56-.6-1.86-.84-3.96-.72-6.29.11-2.33.41-4.64.88-6.94.49-2.32 1.18-4.63 2.07-6.95.89-2.32 2.02-4.43 3.41-6.33 1.38-1.89 3.01-3.43 4.88-4.6 1.87-1.17 4.06-1.75 6.57-1.75 2.01 0 3.71.45 5.09 1.35 1.38.9 2.44 2.21 3.16 3.91.73 1.71 1.11 3.78 1.16 6.2.05 2.43-.24 5.15-.88 8.17zm16.76-22.97l-9.7 45.84 4.82 0 8.85-41.73 26.17 0 .88-4.11-31.02 0zm66.64 22.97c.65-3.07.96-6.03.91-8.89-.05-2.85-.53-5.38-1.44-7.58-.91-2.2-2.35-3.97-4.32-5.29-1.97-1.32-4.53-1.98-7.69-1.98-3.17 0-5.99.66-8.49 1.98-2.49 1.32-4.69 3.09-6.58 5.29-1.9 2.2-3.46 4.73-4.68 7.58-1.21 2.86-2.16 5.82-2.84 8.89-.68 3.07-1 6.03-.97 8.89.04 2.86.52 5.37 1.44 7.55.93 2.18 2.36 3.93 4.31 5.25 1.94 1.33 4.52 1.99 7.72 1.99 3.24 0 6.11-.66 8.63-1.99 2.52-1.32 4.69-3.07 6.53-5.25 1.84-2.18 3.37-4.69 4.6-7.55 1.23-2.86 2.19-5.82 2.87-8.89zm-4.85 0c-.47 2.3-1.15 4.61-2.04 6.94-.89 2.33-2.02 4.43-3.39 6.29-1.37 1.86-3 3.38-4.88 4.56-1.89 1.19-4.08 1.78-6.59 1.78-2.48 0-4.41-.59-5.78-1.78-1.37-1.18-2.35-2.7-2.95-4.56-.59-1.86-.83-3.96-.72-6.29.12-2.33.41-4.64.88-6.94.49-2.32 1.18-4.63 2.07-6.95.89-2.32 2.03-4.43 3.41-6.33 1.38-1.89 3.01-3.43 4.88-4.6 1.88-1.17 4.07-1.75 6.57-1.75 2.02 0 3.71.45 5.1 1.35 1.38.9 2.43 2.21 3.16 3.91.72 1.71 1.11 3.78 1.16 6.2.04 2.43-.25 5.15-.88 8.17zm36.32 22.87l9.73-45.84-29.3 0-9.69 45.84 4.81 0 8.85-41.73 19.64 0-8.85 41.73 4.81 0zm39.27 0l.88-4.11-24.45 0 3.59-17.11 18.05 0 .88-4.11-18.06 0 3.52-16.4 24.45 0 .87-4.11-29.29 0-9.7 45.84 29.26 0zm9.14-4.11l-3.24 15.32 4.26 0 2.45-11.21 24.1 0-2.46 11.21 4.32 0 3.31-15.32-6.54 0 8.85-41.73-17.91 0-2.39 11.31c-1.15 5.27-2.26 9.61-3.34 13.01-1.07 3.41-2.2 6.22-3.39 8.42-1.18 2.2-2.41 3.96-3.7 5.28-1.29 1.33-2.73 2.56-4.32 3.71zm19.56-30.42l1.51-7.2 8.29 0-7.97 37.62-15.63 0c1.64-1.33 3.11-2.9 4.42-4.71 1.31-1.8 2.52-3.93 3.6-6.37 1.09-2.45 2.1-5.25 3.03-8.42.92-3.16 1.84-6.8 2.75-10.92z"/>
      </svg>