<svg width="371.81" height="57.820003509521484" xmlns="http://www.w3.org/2000/svg" xlink="http://www.w3.org/1999/xlink" version="1.1">
 <g id="Layer_1">
  <title>Layer 1</title>
  <g stroke="null">
   <g stroke="null" fill="#ef019b">
    <path stroke="null" d="m92.5189,24.47816c-6.03952,-3.51325 -10.366,-10.77204 -10.81514,-18.65805c-0.07397,-1.55972 -4.69741,-0.46681 -4.62343,1.40486c0.14795,3.35728 1.0441,6.55969 2.38622,9.36719c-2.6092,1.40486 -5.07362,2.88715 -7.7568,4.29532c-1.0441,0.54424 -2.08926,1.01548 -3.13337,1.48229c-0.22192,0.07743 -0.59814,0.31084 -0.82112,0.38827c-0.07397,0.07743 -0.14795,0.07743 -0.22298,0.07743s-0.07397,0 -0.22298,0.07854c-0.67317,0.31084 -1.26814,0.54424 -1.94026,0.85951a116.95648,122.42386 0 0 1 -8.72693,2.88715c-7.1576,1.95242 -14.69142,3.27984 -22.07623,3.27984c-5.07468,0 -9.99507,-0.78207 -14.54453,-2.5752a36.78879,38.50856 0 0 1 -2.98436,-1.48229c-0.22192,-0.07743 -0.37093,-0.31194 -0.67317,-0.38938c-0.22192,-0.15487 -0.22192,-0.15487 -0.22192,-0.07743c0,0 -0.07397,-0.07743 -0.14901,-0.07743c-0.37199,-0.31194 -0.89615,-0.54535 -1.26814,-0.86061c-1.26708,-0.78207 -2.45914,-1.79755 -3.65225,-2.73117c1.11808,-3.59068 1.56404,-7.41477 1.11808,-11.32071c-0.14795,-1.32632 -2.01423,-1.17035 -2.68318,-0.93694c-0.89615,0.31084 -2.01423,1.09291 -1.86523,2.41923c0.82112,7.2599 -1.94026,14.83396 -6.93568,19.28083c-0.74715,0.62721 -1.26814,1.87609 -0.29696,2.49777c0.97013,0.6261 2.46019,0.38938 3.28132,-0.38938c2.23721,-1.95242 4.02952,-4.29422 5.51959,-7.02539c2.16324,1.63716 4.40045,3.12387 6.7127,4.29532c1.63802,0.78207 7.08363,4.76103 28.71496,3.04644c0.8951,-0.07743 1.63802,0.6261 1.71728,1.55972c0.07397,1.24888 1.34212,5.07297 5.51853,9.91143c3.6533,3.04754 17.45386,1.95353 25.05742,-3.74555c0.29801,-0.23341 1.26814,-1.32742 1.49007,-1.63716c0.14901,-0.15597 0.89615,-1.7157 1.04516,-2.03096c1.19311,-2.42034 1.63802,-4.45129 1.41609,-6.94906c-0.29801,-2.73007 -1.41609,-5.38713 -1.86628,-7.4922c-0.22298,-0.93805 0.22192,-1.87499 1.0441,-2.3418c0.29696,-0.15487 0.67317,-0.38938 1.34212,-0.78207c2.01423,2.88715 4.47443,5.22784 7.31084,6.86942c0.97013,0.54535 2.38622,0 3.28132,-0.54424c0.67317,-0.47013 1.42032,-1.40375 0.52417,-1.95242l0,-0.00111zm-24.53749,18.19124a20.12858,21.06953 0 0 1 -2.38622,-3.59068c-0.67317,-1.24888 -1.0441,-2.49777 -1.56404,-3.82409a295.4284,309.23883 0 0 1 -2.98436,-7.6526l0.14795,-0.07743c1.34212,2.41923 2.68423,4.917 3.95449,7.41477c0.67317,1.24888 1.41609,2.41923 1.86628,3.74555c0.44596,1.24999 0.89615,2.5752 1.11914,3.98006l-0.15323,0.00442z"/>
   </g>
  </g>
  <rect id="svg_1" height="155" width="180" y="-155.28999" x="-343.495" stroke="#000" fill="#fff"/>
  <rect id="svg_2" height="19" width="87" y="-65.28999" x="-218.495" stroke="#000" fill="#fff"/>
  <g>
   <g fill="#ef019b">
    <path d="m138.83001,13.87c0.96,-4.35 0.29,-7.63 -2.02,-9.82c-2.31,-2.19 -5.98,-3.28 -11.01,-3.28l-15.11,0l-9.69,45.84l4.81,0l4.18,-19.64l10.36,0c4.99,0 9.09,-1.07 12.3,-3.23c3.21,-2.15 5.27,-5.44 6.18,-9.87zm-4.81,0c-0.68,3.16 -2.16,5.45 -4.43,6.87c-2.27,1.42 -5.07,2.12 -8.39,2.12l-10.37,0l3.83,-17.98l10.37,0c3.3,0 5.79,0.71 7.48,2.12c1.68,1.42 2.19,3.71 1.51,6.87zm43.31,9.87c0.66,-3.07 0.96,-6.03 0.91,-8.89c-0.04,-2.85 -0.52,-5.38 -1.44,-7.58c-0.91,-2.2 -2.35,-3.97 -4.32,-5.29c-1.96,-1.32 -4.53,-1.98 -7.69,-1.98c-3.16,0 -5.99,0.66 -8.48,1.98c-2.5,1.32 -4.69,3.09 -6.59,5.29c-1.9,2.2 -3.45,4.73 -4.67,7.58c-1.22,2.86 -2.17,5.82 -2.85,8.89c-0.68,3.07 -1,6.03 -0.96,8.89c0.03,2.86 0.51,5.37 1.44,7.55c0.92,2.18 2.36,3.93 4.3,5.25c1.94,1.33 4.52,1.99 7.73,1.99c3.23,0 6.11,-0.66 8.62,-1.99c2.52,-1.32 4.7,-3.07 6.54,-5.25c1.83,-2.18 3.37,-4.69 4.6,-7.55c1.23,-2.86 2.18,-5.82 2.86,-8.89zm-4.85,0c-0.46,2.3 -1.14,4.61 -2.03,6.94c-0.89,2.33 -2.02,4.43 -3.39,6.29c-1.37,1.86 -3,3.38 -4.89,4.56c-1.88,1.19 -4.08,1.78 -6.58,1.78c-2.49,0 -4.41,-0.59 -5.78,-1.78c-1.37,-1.18 -2.35,-2.7 -2.95,-4.56c-0.6,-1.86 -0.84,-3.96 -0.72,-6.29c0.11,-2.33 0.41,-4.64 0.88,-6.94c0.49,-2.32 1.18,-4.63 2.07,-6.95c0.89,-2.32 2.02,-4.43 3.41,-6.33c1.38,-1.89 3.01,-3.43 4.88,-4.6c1.87,-1.17 4.06,-1.75 6.57,-1.75c2.01,0 3.71,0.45 5.09,1.35c1.38,0.9 2.44,2.21 3.16,3.91c0.73,1.71 1.11,3.78 1.16,6.2c0.05,2.43 -0.24,5.15 -0.88,8.17zm16.76,-22.97l-9.7,45.84l4.82,0l8.85,-41.73l26.17,0l0.88,-4.11l-31.02,0zm66.64,22.97c0.65,-3.07 0.96,-6.03 0.91,-8.89c-0.05,-2.85 -0.53,-5.38 -1.44,-7.58c-0.91,-2.2 -2.35,-3.97 -4.32,-5.29c-1.97,-1.32 -4.53,-1.98 -7.69,-1.98c-3.17,0 -5.99,0.66 -8.49,1.98c-2.49,1.32 -4.69,3.09 -6.58,5.29c-1.9,2.2 -3.46,4.73 -4.68,7.58c-1.21,2.86 -2.16,5.82 -2.84,8.89c-0.68,3.07 -1,6.03 -0.97,8.89c0.04,2.86 0.52,5.37 1.44,7.55c0.93,2.18 2.36,3.93 4.31,5.25c1.94,1.33 4.52,1.99 7.72,1.99c3.24,0 6.11,-0.66 8.63,-1.99c2.52,-1.32 4.69,-3.07 6.53,-5.25c1.84,-2.18 3.37,-4.69 4.6,-7.55c1.23,-2.86 2.19,-5.82 2.87,-8.89zm-4.85,0c-0.47,2.3 -1.15,4.61 -2.04,6.94c-0.89,2.33 -2.02,4.43 -3.39,6.29c-1.37,1.86 -3,3.38 -4.88,4.56c-1.89,1.19 -4.08,1.78 -6.59,1.78c-2.48,0 -4.41,-0.59 -5.78,-1.78c-1.37,-1.18 -2.35,-2.7 -2.95,-4.56c-0.59,-1.86 -0.83,-3.96 -0.72,-6.29c0.12,-2.33 0.41,-4.64 0.88,-6.94c0.49,-2.32 1.18,-4.63 2.07,-6.95c0.89,-2.32 2.03,-4.43 3.41,-6.33c1.38,-1.89 3.01,-3.43 4.88,-4.6c1.88,-1.17 4.07,-1.75 6.57,-1.75c2.02,0 3.71,0.45 5.1,1.35c1.38,0.9 2.43,2.21 3.16,3.91c0.72,1.71 1.11,3.78 1.16,6.2c0.04,2.43 -0.25,5.15 -0.88,8.17zm36.32,22.87l9.73,-45.84l-29.3,0l-9.69,45.84l4.81,0l8.85,-41.73l19.64,0l-8.85,41.73l4.81,0zm39.27,0l0.88,-4.11l-24.45,0l3.59,-17.11l18.05,0l0.88,-4.11l-18.06,0l3.52,-16.4l24.45,0l0.87,-4.11l-29.29,0l-9.7,45.84l29.26,0zm9.14,-4.11l-3.24,15.32l4.26,0l2.45,-11.21l24.1,0l-2.46,11.21l4.32,0l3.31,-15.32l-6.54,0l8.85,-41.73l-17.91,0l-2.39,11.31c-1.15,5.27 -2.26,9.61 -3.34,13.01c-1.07,3.41 -2.2,6.22 -3.39,8.42c-1.18,2.2 -2.41,3.96 -3.7,5.28c-1.29,1.33 -2.73,2.56 -4.32,3.71zm19.56,-30.42l1.51,-7.2l8.29,0l-7.97,37.62l-15.63,0c1.64,-1.33 3.11,-2.9 4.42,-4.71c1.31,-1.8 2.52,-3.93 3.6,-6.37c1.09,-2.45 2.1,-5.25 3.03,-8.42c0.92,-3.16 1.84,-6.8 2.75,-10.92z"/>
   </g>
  </g>
 </g>

</svg>