<svg xmlns="http://www.w3.org/2000/svg" viewBox="0 0 371.81 57.82"> <path fill="#ef019b" d="M92.52 24.48c-6.04-3.51-10.37-10.77-10.82-18.66-.07-1.56-4.7-.47-4.62 1.4.15 3.36 1.04 6.56 2.39 9.37-2.61 1.4-5.07 2.89-7.76 4.3-1.04.54-2.09 1.02-3.13 1.48-.22.08-.6.31-.82.39-.07.08-.15.08-.22.08s-.07 0-.22.08c-.67.31-1.27.54-1.94.86a117 122.4 0 0 1-8.73 2.89c-7.16 1.95-14.69 3.28-22.08 3.28-5.07 0-10-.78-14.54-2.58a36.8 38.5 0 0 1-2.98-1.48c-.22-.08-.37-.31-.67-.39-.22-.15-.22-.15-.22-.08 0 0-.07-.08-.15-.08-.37-.31-.9-.55-1.27-.86-1.27-.78-2.46-1.8-3.65-2.73 1.12-3.59 1.56-7.41 1.12-11.32-.15-1.33-2.01-1.17-2.68-.94-.9.31-2.01 1.09-1.87 2.42.82 7.26-1.94 14.83-6.94 19.28-.75.63-1.27 1.88-.3 2.5.97.63 2.46.39 3.28-.39 2.24-1.95 4.03-4.29 5.52-7.03 2.16 1.64 4.4 3.12 6.71 4.3 1.64.78 7.08 4.76 28.71 3.05.9-.08 1.64.63 1.72 1.56.07 1.25 1.34 5.07 5.52 9.91 3.65 3.05 17.45 1.95 25.06-3.75.3-.23 1.27-1.33 1.49-1.64.15-.16.9-1.72 1.05-2.03 1.19-2.42 1.64-4.45 1.42-6.95-.3-2.73-1.42-5.39-1.87-7.49-.22-.94.22-1.87 1.04-2.34.3-.15.67-.39 1.34-.78 2.01 2.89 4.47 5.23 7.31 6.87.97.54 2.39 0 3.28-.54.67-.47 1.42-1.4.52-1.95zm-24.54 18.19a20.1 21.1 0 0 1-2.39-3.59c-.67-1.25-1.04-2.5-1.56-3.82a295 309.2 0 0 1-2.98-7.65l.15-.08c1.34 2.42 2.68 4.92 3.95 7.41.67 1.25 1.42 2.42 1.87 3.75.45 1.25.9 2.58 1.12 3.98z"/> <text x="125" y="45" font-family="Arial, sans-serif" font-size="36" fill="#ef019b" transform="skewX(-10)"> ЛОГОПЕД+ </text> </svg>