<svg xmlns="http://www.w3.org/2000/svg" version="1.1" xlink="http://www.w3.org/1999/xlink" xmlns:svgjs="http://svgjs.com/svgjs" width="100%" height="100%" viewBox="-1.7200000286102295 -46.61000061035156 269.80999755859375 57.820003509521484"><g fill="#ef019b"><path d="M36.11 -32.74C37.07 -37.09 36.4 -40.37 34.09 -42.56C31.78 -44.75 28.11 -45.84 23.08 -45.84L7.97 -45.84L-1.72 0L3.09 0L7.27 -19.64L17.63 -19.64C22.62 -19.64 26.72 -20.71 29.93 -22.87C33.14 -25.02 35.2 -28.31 36.11 -32.74ZM31.3 -32.74C30.62 -29.58 29.14 -27.29 26.87 -25.87C24.6 -24.45 21.8 -23.75 18.48 -23.75L8.11 -23.75L11.94 -41.73L22.31 -41.73C25.61 -41.73 28.1 -41.02 29.79 -39.61C31.47 -38.19 31.98 -35.9 31.3 -32.74Z M74.61 -22.87C75.27 -25.94 75.57 -28.9 75.52 -31.76C75.48 -34.61 75 -37.14 74.08 -39.34C73.17 -41.54 71.73 -43.31 69.76 -44.63C67.8 -45.95 65.23 -46.61 62.07 -46.61C58.91 -46.61 56.08 -45.95 53.59 -44.63C51.09 -43.31 48.9 -41.54 47 -39.34C45.1 -37.14 43.55 -34.61 42.33 -31.76C41.11 -28.9 40.16 -25.94 39.48 -22.87C38.8 -19.8 38.48 -16.84 38.52 -13.98C38.55 -11.12 39.03 -8.61 39.96 -6.43C40.88 -4.25 42.32 -2.5 44.26 -1.18C46.2 0.15 48.78 0.81 51.99 0.81C55.22 0.81 58.1 0.15 60.61 -1.18C63.13 -2.5 65.31 -4.25 67.15 -6.43C68.98 -8.61 70.52 -11.12 71.75 -13.98C72.98 -16.84 73.93 -19.8 74.61 -22.87ZM69.76 -22.87C69.3 -20.57 68.62 -18.26 67.73 -15.93C66.84 -13.6 65.71 -11.5 64.34 -9.64C62.97 -7.78 61.34 -6.26 59.45 -5.08C57.57 -3.89 55.37 -3.3 52.87 -3.3C50.38 -3.3 48.46 -3.89 47.09 -5.08C45.72 -6.26 44.74 -7.78 44.14 -9.64C43.54 -11.5 43.3 -13.6 43.42 -15.93C43.53 -18.26 43.83 -20.57 44.3 -22.87C44.79 -25.19 45.48 -27.5 46.37 -29.82C47.26 -32.14 48.39 -34.25 49.78 -36.15C51.16 -38.04 52.79 -39.58 54.66 -40.75C56.53 -41.92 58.72 -42.5 61.23 -42.5C63.24 -42.5 64.94 -42.05 66.32 -41.15C67.7 -40.25 68.76 -38.94 69.48 -37.24C70.21 -35.53 70.59 -33.46 70.64 -31.04C70.69 -28.61 70.4 -25.89 69.76 -22.87Z M86.52 -45.84L76.82 0L81.64 0L90.49 -41.73L116.66 -41.73L117.54 -45.84Z M153.16 -22.87C153.81 -25.94 154.12 -28.9 154.07 -31.76C154.02 -34.61 153.54 -37.14 152.63 -39.34C151.72 -41.54 150.28 -43.31 148.31 -44.63C146.34 -45.95 143.78 -46.61 140.62 -46.61C137.45 -46.61 134.63 -45.95 132.13 -44.63C129.64 -43.31 127.44 -41.54 125.55 -39.34C123.65 -37.14 122.09 -34.61 120.87 -31.76C119.66 -28.9 118.71 -25.94 118.03 -22.87C117.35 -19.8 117.03 -16.84 117.06 -13.98C117.1 -11.12 117.58 -8.61 118.5 -6.43C119.43 -4.25 120.86 -2.5 122.81 -1.18C124.75 0.15 127.33 0.81 130.53 0.81C133.77 0.81 136.64 0.15 139.16 -1.18C141.68 -2.5 143.85 -4.25 145.69 -6.43C147.53 -8.61 149.06 -11.12 150.29 -13.98C151.52 -16.84 152.48 -19.8 153.16 -22.87ZM148.31 -22.87C147.84 -20.57 147.16 -18.26 146.27 -15.93C145.38 -13.6 144.25 -11.5 142.88 -9.64C141.51 -7.78 139.88 -6.26 138 -5.08C136.11 -3.89 133.92 -3.3 131.41 -3.3C128.93 -3.3 127 -3.89 125.63 -5.08C124.26 -6.26 123.28 -7.78 122.68 -9.64C122.09 -11.5 121.85 -13.6 121.96 -15.93C122.08 -18.26 122.37 -20.57 122.84 -22.87C123.33 -25.19 124.02 -27.5 124.91 -29.82C125.8 -32.14 126.94 -34.25 128.32 -36.15C129.7 -38.04 131.33 -39.58 133.2 -40.75C135.08 -41.92 137.27 -42.5 139.77 -42.5C141.79 -42.5 143.48 -42.05 144.87 -41.15C146.25 -40.25 147.3 -38.94 148.03 -37.24C148.75 -35.53 149.14 -33.46 149.19 -31.04C149.23 -28.61 148.94 -25.89 148.31 -22.87Z M184.63 0L194.36 -45.84L165.06 -45.84L155.37 0L160.18 0L169.03 -41.73L188.67 -41.73L179.82 0Z M223.9 0L224.78 -4.11L200.33 -4.11L203.92 -21.22L221.97 -21.22L222.85 -25.33L204.79 -25.33L208.31 -41.73L232.76 -41.73L233.63 -45.84L204.34 -45.84L194.64 0Z M233.04 -4.11L229.8 11.21L234.06 11.21L236.51 0L260.61 0L258.15 11.21L262.47 11.21L265.78 -4.11L259.24 -4.11L268.09 -45.84L250.18 -45.84L247.79 -34.53C246.64 -29.26 245.53 -24.92 244.45 -21.52C243.38 -18.11 242.25 -15.3 241.06 -13.1C239.88 -10.9 238.65 -9.14 237.36 -7.82C236.07 -6.49 234.63 -5.26 233.04 -4.11ZM252.6 -34.53L254.11 -41.73L262.4 -41.73L254.43 -4.11L238.8 -4.11C240.44 -5.44 241.91 -7.01 243.22 -8.82C244.53 -10.62 245.74 -12.75 246.82 -15.19C247.91 -17.64 248.92 -20.44 249.85 -23.61C250.77 -26.77 251.69 -30.41 252.6 -34.53Z"></path></g></svg>